<?xml version="1.0" encoding="UTF-8" standalone="no"?>
<svg xmlns="http://www.w3.org/2000/svg" xmlns:xlink="http://www.w3.org/1999/xlink" width="159.99997" height="160.00209" version="1.0">
  <defs>
    <radialGradient xlink:href="#a" id="h" cx="136.1499" cy="504.90085" r="406.37308" fx="136.1499" fy="504.90085" gradientUnits="userSpaceOnUse"/>
    <radialGradient xlink:href="#b" id="g" cx="209.15753" cy="407.22339" r="55.703125" fx="209.15753" fy="407.22339" gradientTransform="matrix(2.97142 .4338 -.44544 3.04143 176.2001 -314.492)" gradientUnits="userSpaceOnUse"/>
    <radialGradient xlink:href="#c" id="f" cx="107.20115" cy="495.30679" r="405.35715" fx="107.20115" fy="495.30679" gradientTransform="translate(-16.1173 -74.46758) scale(1.15035)" gradientUnits="userSpaceOnUse"/>
    <radialGradient xlink:href="#d" id="e" cx="406.20645" cy="1189.2123" r="88.938736" fx="406.20645" fy="1189.2123" gradientTransform="matrix(1.45458 -.10303 .11844 1.80241 -328.325 -918.4274)" gradientUnits="userSpaceOnUse"/>
    <linearGradient id="a">
      <stop offset="0" stop-color="#fff" stop-opacity=".85624999"/>
      <stop offset="1" stop-color="#fff" stop-opacity="0"/>
    </linearGradient>
    <linearGradient id="b">
      <stop offset="0" stop-color="#bfd1eb"/>
      <stop offset=".61538464" stop-color="#315c9b"/>
      <stop offset="1" stop-color="#11233a"/>
    </linearGradient>
    <linearGradient id="c">
      <stop offset="0" stop-color="#f2c41f"/>
      <stop offset="1" stop-color="#b9380a"/>
    </linearGradient>
    <linearGradient id="d">
      <stop offset="0" stop-color="#6e9f4b"/>
      <stop offset=".5" stop-color="#425f2d"/>
      <stop offset="1" stop-color="#2a3d1d"/>
    </linearGradient>
  </defs>
  <g transform="matrix(1.71783 .3719 -.32611 1.50612 -1723.756698 -788.6024)">
    <path fill="url(#e)" fill-rule="evenodd" d="M533.63243 1211.5447a88.938736 110.2067 0 1 1-177.87747 0 88.938736 110.2067 0 1 1 177.87747 0z" color="#000" overflow="visible" style="marker:none" transform="matrix(.47965 .00387 -.00372 .462 899.3227 -259.237)"/>
    <g stroke-width="3.36015654" color="#000" transform="matrix(.1929 0 0 .21883 984.1483712 167.34008633)">
      <path fill="url(#f)" fill-rule="evenodd" d="M654.28571 648.07648a392.85715 392.85715 0 1 1-785.7143 0 392.85715 392.85715 0 1 1 785.7143 0z" overflow="visible" style="marker:none" transform="translate(484.3515 236.1627) scale(.59538)"/>
      <path fill="url(#g)" d="M685.79834 936.8631c-32.76808-4.93347-67.11167 2.38183-95.15749 19.98847 6.70091 4.75188 33.47985 14.65682 20.05068 21.2461-7.40299 13.03187-31.39864 28.25703-46.28999 18.68545-14.85645 5.58808-34.57523 24.60068-29.29017 39.87828 20.02708 6.571 22.77241 18.9918 18.78287 21.7385-22.06633 12.7917-27.57786 49.4131-21.04149 68.6413 21.70411 60.5474 88.29596 100.1795 151.8732 90.1663 50.25358-6.5873 95.21077-42.4725 112.79522-90.0049 4.08443-34.8935-25.0242 31.0706-24.50763-2.9505 1.65443-20.6432-19.40389-11.2893-29.66898-20.7225-13.89675 5.8998-36.74148-23.8871-37.4247 4.5024 4.81353 13.7973 42.44306-9.0631 21.44813 14.0941-13.70214 16.3501-48.5274 51.7702-49.13854 73.4666-5.54522 30.7089-32.51552.3119-41.46381-11.9629-3.37758-21.7716 8.39814-56.4164-8.88553-70.104-20.69691-4.9459-38.25594-10.2474-41.78365-35.1486-1.60466-17.6363 13.26507-40.5432 31.90691-40.9177 29.4066-11.3851 31.70139 26.0793 56.13443 31.4975 9.18613-6.5023 30.53215-5.0874 34.00483-13.7012-15.55946-5.9631 23.09448-9.56 2.29501-19.906-12.40841-.9205-22.36882 8.8259-17.76835 19.5292-24.57911.932-17.62879-38.7948-42.66093-30.7095-4.42621 19.5859-38.18253-.7277-13.0712-.0137 9.07314-2.0336-10.84194-16.8977.66461-12.6749 5.89895.8127 26.98919-2.1935 22.57593-7.8524 12.27088-4.67428 16.91595 20.0143 30.90871 5.2966 10.25581-11.41407-.24916-15.87426-11.22076-11.20616-5.68993-9.5673 27.49686-24.63229 40.24223-20.94712 5.86251 10.21162 20.56162 13.77653 20.45157-1.48464 9.22666-11.69675 39.61538 16.32179 20.55054-2.47475-20.71997-19.22379-47.32709-31.94762-75.31165-35.94933z" overflow="visible" style="marker:none" transform="matrix(1.64935 0 0 1.652 -456.9646 -1157.083)"/>
      <path fill="url(#h)" fill-rule="evenodd" d="M654.28571 648.07648a392.85715 392.85715 0 1 1-785.7143 0 392.85715 392.85715 0 1 1 785.7143 0z" opacity=".76025235" overflow="visible" style="marker:none" transform="translate(484.3515 236.1627) scale(.59538)"/>
    </g>
    <g fill="none" stroke="#ccc" stroke-linecap="round" stroke-linejoin="round" stroke-width="1.84146285" opacity=".41833813" transform="matrix(.46163 .00366 -.00372 .45385 776.2595 -251.8312)">
      <path d="m729.28579 1110.8182.05144 219.6508m-27.20071-220.6977c-21.87876 69.7695-19.62303 141.5587.13282 215.3635m54.03199-215.7439c21.96052 70.0455 19.79619 142.0848.1394 216.1226m-84.05915-197.9113c-37.60127 59.2232-34.64352 118.6117.73925 181.2359M786.223 1127.9786c37.58901 59.7224 34.59363 117.3242-.76919 180.4709"/>
      <path stroke-width="1.85379398" d="m729.2615 1108.2592.04858 218.3869m-27.11856-213.9572c-21.96238 67.8818-19.7236 137.7256.06345 209.5281m51.9828-211.6867c22.06458 64.8653 20.26754 145.7212.42882 214.3115m-81.54576-198.7746c-37.60127 59.2232-35.38277 120.1467 0 182.7709m112.32986-182.7709c37.60127 59.2232 35.38277 120.1467 0 182.7709" transform="matrix(0 1.12446 -.87753 0 1797.633 397.4031)"/>
    </g>
    <g fill="none" stroke="#a4a4a4" stroke-linecap="round" stroke-linejoin="round" stroke-width="1.84146285" opacity=".41833813" transform="matrix(.46163 .00366 -.00372 .45385 775.4166 -252.6742)">
      <path d="m729.28579 1110.8182.06778 221.6779m-27.21705-222.7248c-21.87876 69.7695-19.62303 141.5587.13282 215.3635m54.03199-215.7439c21.96052 70.0455 19.99025 142.8477.33346 216.8855m-84.25321-198.6742c-37.60127 59.2232-34.64352 118.6117.73925 181.2359M786.223 1127.9786c37.58901 59.7224 34.60904 119.2353-.75378 182.382"/>
      <path stroke-width="1.85379398" d="m729.2615 1108.2592.04858 218.3869m-27.11856-213.9572c-21.96238 67.8818-19.7236 137.7256.06345 209.5281m52.6586-212.3361c22.06458 64.8653 19.59174 146.3706-.24698 214.9609m-81.54576-198.7746c-37.60127 59.2232-35.38277 120.1467 0 182.7709m112.66305-183.845c37.60127 59.2232 35.04958 121.2208-.33319 183.845" transform="matrix(0 1.12446 -.87753 0 1797.633 397.4031)"/>
    </g>
    <path fill="none" stroke="gray" stroke-linecap="round" stroke-linejoin="round" stroke-width=".84432685" d="M1107.6009 251.92564c-.0995 0-.1992.00809-.2986.00883-.3304.00242-.6634.0071-.9921.0176-24.3096.77641-43.8308 23.46819-43.8308 51.32684 0 23.77336 14.2209 43.78448 33.4965 49.6265.1792.05431.3555.11553.5356.1674 5.615 1.68792 11.5129 2.13737 17.3321 1.09242 3.9047-.58355 7.7076-1.80995 11.3089-3.56803.0846-.04076.1703-.08199.2546-.12334.0645-.03201.1289-.06453.1932-.0969.3676-.18246.7351-.37065 1.0975-.56386.0266-.01416.0525-.0298.079-.04404.015-.0081.029-.0183.0439-.02643 15.2992-8.22069 25.8929-25.93948 25.8929-46.46372 0-14.93567-5.6153-28.38139-14.5664-37.76831-.2066-.21671-.4132-.43078-.6234-.64312-.1354-.13775-.267-.27827-.4039-.41407-.0756-.07459-.1522-.14622-.2282-.22025-.1969-.19262-.3973-.38404-.5971-.57264-.0166-.0156-.0361-.02849-.0527-.04406-.0515-.04852-.1063-.09272-.158-.14097-.4872-.45433-.9803-.90016-1.4839-1.33029-.0063-.00538-.0113-.01225-.0176-.01762-.1118-.09527-.2209-.18781-.3336-.28192-.1769-.14805-.3567-.29544-.5356-.44048-.0501-.04057-.099-.08303-.1493-.12337-.2459-.19773-.4968-.38941-.7463-.58145-.2165-.16655-.4305-.331-.6497-.49336-.0853-.06321-.169-.12246-.2546-.185-.309-.22566-.617-.44382-.9307-.66074-.3074-.21253-.619-.42146-.9307-.62551-.0122-.00798-.023-.01848-.0352-.02644-.3035-.19824-.6144-.39131-.9219-.58146-.3205-.19819-.6412-.39217-.9658-.58145-.3228-.1882-.648-.37577-.9746-.55502-.0414-.02272-.0815-.04791-.1229-.07049-.2882-.1569-.5782-.30821-.8693-.45811-.3206-.16515-.6418-.31921-.9658-.47575-.0152-.00736-.0286-.01907-.0439-.02643-.1427-.06875-.2868-.13551-.4302-.20262-.1957-.09157-.3915-.18469-.5883-.27312-.0648-.02911-.1282-.05931-.1932-.08809-.2761-.12238-.5559-.23626-.8341-.35241-.3185-.13298-.6359-.26292-.957-.38761-.0295-.01146-.0584-.02389-.0878-.03526-.1661-.064-.3336-.12315-.5005-.185-.185-.06858-.3674-.13683-.5531-.20263-.0822-.02911-.1635-.05951-.2459-.08811-.2712-.09412-.5438-.1849-.8166-.2731-.2673-.08649-.5384-.1745-.8077-.2555-.0908-.02726-.1813-.05268-.2722-.07928-.1815-.05321-.362-.09909-.5444-.14977-.1794-.04973-.3556-.10261-.5356-.14978-.0931-.0245-.1876-.04663-.281-.07047-.2713-.069-.544-.13953-.8165-.20264-.0028-.00064-.006.00066-.0088 0-.0673-.01556-.1346-.02885-.2019-.04404-.2837-.06403-.567-.12741-.8517-.18501-.0146-.00294-.0293-.00587-.0439-.00881-.1865-.03795-.3747-.07039-.5619-.10572-.2775-.05234-.5551-.10322-.8342-.14977-.2819-.04839-.5603-.09024-.8429-.13215-.0437-.00634-.0879-.01142-.1317-.01762-.3324-.04809-.6677-.09297-1.0009-.13215-.3801-.04469-.7606-.08138-1.1415-.11453-.268-.02324-.5384-.04379-.8077-.06167-.2914-.01933-.5852-.03103-.878-.04404-.0381-.0017-.0761-.00723-.1142-.00882-.1703-.00678-.3389-.01311-.5092-.01761-.1934-.0056-.3855-.00601-.5795-.0088-.194-.00282-.385-.00883-.5795-.00883z" color="#000" overflow="visible" style="marker:none"/>
  </g>
</svg>